<svg xmlns="http://www.w3.org/2000/svg" viewBox="0 0 48 48" width="48px" height="48px">
  <path fill="#4285F4" d="M45.09 24.69c0-1.69-.15-3.32-.44-4.89H24v9.25h11.91c-.52 2.8-2.07 5.16-4.42 6.75v5.61h7.14c4.17-3.83 6.57-9.47 6.57-16.72z"/>
  <path fill="#34A853" d="M24 48c6.01 0 11.03-1.99 14.71-5.41l-7.14-5.61c-2.07 1.39-4.68 2.21-7.57 2.21-5.82 0-10.75-3.93-12.53-9.17H4.08v5.75C7.8 43.07 15.32 48 24 48z"/>
  <path fill="#FBBC05" d="M11.47 28.02c-.48-1.39-.75-2.87-.75-4.39s.27-3 .75-4.39V13.5H4.08C2.73 16.14 2 19.07 2 22s.73 5.86 2.08 8.5l7.39-2.48z"/>
  <path fill="#EA4335" d="M24 9.5c3.29 0 6.23 1.14 8.54 3.38l6.39-6.39C34.36 2.54 29.93 0 24 0 15.32 0 7.8 4.93 4.08 12.5l7.39 5.75C13.25 13.43 18.18 9.5 24 9.5z"/>
</svg>
